<?xml version="1.0" encoding="UTF-8"?>
<svg width="76px" height="49px" viewBox="0 0 76 49" version="1.1" xmlns="http://www.w3.org/2000/svg" xmlns:xlink="http://www.w3.org/1999/xlink">
    <title>logo_blue</title>
    <defs>
        <polygon id="path-1" points="0.422882743 0.02613248 8.67199269 0.02613248 8.67199269 8.68805837 0.422882743 8.68805837"></polygon>
    </defs>
    <g id="logo_blue" stroke="none" stroke-width="1" fill="none" fill-rule="evenodd">
        <g id="Group-15">
            <path d="M46.3296539,12.2058083 C46.3296539,11.5402156 45.7762146,11 45.0924021,11 L40.9778708,11 L40.9778708,14.6371991 L35.2,14.6371991 L35.2,18.5983592 C35.2,19.2643727 35.7538709,19.8045882 36.4376835,19.8045882 L40.9778708,19.8045882 L40.9778708,32.4756727 C40.9778708,33.6053291 40.9001648,34.6197058 41.2036498,35.6416557 C41.5075665,36.6640263 41.8788284,37.4844471 42.3998901,38.1252168 C42.9209518,38.7659865 43.7619031,39.5531698 44.7008503,39.9860996 C46.5424819,40.8368129 48.499809,40.6903993 50.4843332,40.6903993 L51.7,40.6903993 L51.7,40.6012049 L51.7,39.4391524 L51.7,38.1252168 L51.7,36.324919 L51.5653096,36.324919 L51.2216766,36.324919 L50.7610528,36.324919 L50.2719369,36.324919 L49.8467125,36.324919 C49.7366291,36.324919 49.6261139,36.324919 49.5143037,36.3169251 C49.3183119,36.3101935 49.1231836,36.2883156 48.9310772,36.2475049 C48.747173,36.2087979 48.5662908,36.1536824 48.3914523,36.0834207 C48.2200675,36.0140005 48.0551582,35.9302755 47.8984511,35.8326665 C47.7426075,35.7367403 47.5962612,35.6265094 47.4598441,35.5057603 C47.3242903,35.3850112 47.1986657,35.2524817 47.0855603,35.1102754 C46.9720232,34.9684899 46.8718689,34.8161861 46.7850972,34.6567299 C46.6978938,34.4955909 46.6245049,34.3272994 46.5679522,34.1535385 C46.552411,34.1068376 46.5373015,34.0584538 46.5243505,34.0109115 C46.418584,33.6987308 46.3594411,33.3655137 46.3594411,33.0184126 L46.3391513,32.1723273 L46.3391513,19.8045882 L50.4623165,19.8045882 C51.1456974,19.8045882 51.7,19.2643727 51.7,18.5983592 L51.7,14.6371991 L46.3296539,14.6371991 L46.3296539,12.6076041 L46.3296539,12.2058083 Z" id="Fill-1" fill="#0072CE"></path>
            <path d="M60.5,2.2 L56.1638244,2.2 C55.267936,2.2 55,2.84150307 55,3.61855818 L55,38.4187609 C55,38.9778615 55.3795158,39.5357261 55.9175544,39.6 L58.3254575,39.6 L60.5,39.6 L60.5,38.9778615 L60.4971112,11.5032366 L60.5,2.2 Z" id="Fill-3" fill="#0072CE"></path>
            <g id="Group-7" transform="translate(22.000000, 0.000000)">
                <mask id="mask-2" fill="white">
                    <use xlink:href="#path-1"></use>
                </mask>
                <g id="Clip-6"></g>
                <path d="M4.5461504,8.68805837 C6.10680442,8.68805837 7.44990232,7.76170701 8.1510595,6.41768653 C8.26262674,6.20547277 8.35702979,5.98244557 8.43341044,5.74770381 C8.57801874,5.30705613 8.67199269,4.84523213 8.67199269,4.35502285 C8.67199269,1.96750541 6.82126385,0.026042368 4.5461504,0.026042368 C3.71969463,0.026042368 2.95374263,0.286916608 2.30665265,0.729817088 C1.82777173,1.05692365 1.43986103,1.49892301 1.12446903,1.99859405 C0.694506057,2.67758797 0.422882743,3.47733197 0.422882743,4.35502285 C0.422882743,4.50596045 0.449487238,4.65059021 0.464505905,4.79657165 C0.49926339,5.14530509 0.584226133,5.47556557 0.691931429,5.79366093 C1.25877882,7.47244749 2.75678354,8.68805837 4.5461504,8.68805837" id="Fill-5" fill="#E4002B" mask="url(#mask-2)"></path>
            </g>
            <path d="M18.1927357,19.1537714 C18.191529,16.4722006 16.1466512,14.3 13.625547,14.3 C13.520568,14.3 13.4171979,14.3085537 13.3138278,14.3162519 C13.2760193,14.3196734 13.2378085,14.318818 13.2,14.3230949 L13.2,14.3769829 L13.2,21.8208009 L13.2,24.5708009 L13.2,30.1426516 C13.2,35.9642691 17.2692425,40.7 22.7442379,40.7 C28.2192333,40.7 33,35.9642691 33,30.1426516 L33,24.5708009 L33,21.8208009 L33,14.3230949 C32.860028,14.3085537 32.7188494,14.3 32.5752575,14.3 C30.0521421,14.3 28.0068621,16.474339 28.0068621,19.1576205 C28.0068621,19.2264774 28.014102,19.293196 28.0169175,19.3620529 L28.0040466,19.3487947 L28.0040466,30.1426516 C28.0040466,33.0346423 25.4644402,35.387325 22.7442379,35.387325 C20.0244378,35.387325 18.1963557,33.0346423 18.1963557,30.1426516 L18.1963557,19.1576205 L18.1927357,19.1537714 Z" id="Fill-8" fill="#0072CE"></path>
            <path d="M66.4713355,29.15 L66.4638718,29.141323 L75.9,18.7 L71.5918148,18.7 C69.5961174,18.784704 68.1622671,19.9912202 67.4254389,20.9225515 L62.4393053,26.8237377 L61.3691007,28.10876 L61.3645396,28.10876 L61.0187237,28.5227769 L60.5,29.141323 L60.507049,29.15 L60.5,29.158677 L61.0187237,29.7768099 L61.3645396,30.19124 L61.3691007,30.19124 L62.4393053,31.4758491 L67.4254389,37.3770353 C68.1622671,38.3083666 69.5961174,39.515296 71.5918148,39.6 L75.9,39.6 L66.4638718,29.158677 L66.4713355,29.15 Z" id="Fill-10" fill="#0072CE"></path>
            <g id="Group-14" transform="translate(0.000000, 3.300000)" fill="#0072CE">
                <path d="M34.5156152,36.8039168 C31.127742,39.7641024 27.7334346,40.9290978 22.8632865,40.9290978 C12.2780551,40.9290978 4.33351353,33.1957824 4.33351353,22.7502528 C4.33351353,13.3501632 11.1947061,6.10630928 20.315212,4.63297808 C20.0695216,3.89546768 19.850189,2.96902184 19.7926032,2.10673406 C19.7350174,1.24444627 19.6680276,0.7182912 19.739937,0.3039168 C8.66075668,1.8655296 -4.28032e-05,11.2837824 -4.28032e-05,22.6345152 C-4.28032e-05,35.0758848 10.25646,45.1965888 22.8632865,45.1965888 C30.0328225,45.1965888 36.4353251,41.9170752 40.6304668,36.8039168 L34.5156152,36.8039168 Z" id="Fill-12"></path>
            </g>
        </g>
    </g>
</svg>